# Blender 3.6.2
# www.blender.org
mtllib Low.mtl
o Plane
v -1.000000 0.000000 1.000000
v 1.000000 0.000000 1.000000
v -1.000000 0.000000 -1.000000
v 1.000000 0.000000 -1.000000
v 1.000000 2.000000 -1.000000
v 1.000000 0.500000 -0.500000
v -1.000000 0.500000 -0.500000
v -1.000000 2.000000 -1.000000
vn -0.0000 -0.9511 0.3090
vn -0.0000 -1.0000 -0.0000
vn -0.0000 0.0076 1.0000
vn -0.0000 0.7071 0.7071
vn -0.0000 1.0000 0.0076
vn -0.0000 -0.0000 -1.0000
vn -0.0000 0.3090 -0.9511
vn 1.0000 -0.0000 -0.0000
vn 0.9511 -0.0000 -0.3090
vn 0.9511 -0.3090 -0.0000
vn -0.9511 -0.0000 -0.3090
vn -1.0000 -0.0000 -0.0000
vn -0.9511 -0.3090 -0.0000
vt 0.000000 0.000000
vt 0.000000 1.000000
vt 1.000000 1.000000
vt 1.000000 0.000000
s 1
f 1/1/1 3/2/2 4/3/2 2/4/1
f 5/1/3 8/1/3 7/1/4 6/1/4
f 1/1/5 2/4/5 6/1/4 7/1/4
f 3/2/6 8/1/7 5/1/7 4/3/6
f 4/3/8 6/1/8 2/4/9
f 5/1/10 6/1/8 4/3/8
f 1/1/11 7/1/12 3/2/12
f 8/1/13 3/2/12 7/1/12
