# Blender 3.5.1
# www.blender.org
mtllib LowRamp.mtl
o Plane
v 1.000000 4.000000 -3.000000
v -1.000000 4.000000 -3.000000
v -1.000000 0.000000 1.000000
v 1.000000 0.000000 1.000000
v -1.000000 2.000000 -1.000000
v 1.000000 2.000000 -1.000000
v -1.000000 4.000000 -1.000000
v 1.000000 4.000000 -1.000000
v 1.000000 1.468836 -0.928455
v 1.000000 0.991221 -0.726612
v 1.000000 0.586343 -0.413657
v 1.000000 0.273388 -0.008779
v 1.000000 0.071545 0.468836
v -1.000000 0.071545 0.468836
v -1.000000 0.273388 -0.008779
v -1.000000 0.586343 -0.413657
v -1.000000 0.991221 -0.726612
v -1.000000 1.468836 -0.928455
v 1.000000 -1.000000 -3.000000
v -1.000000 -1.000000 -3.000000
v -1.000000 0.000000 3.000000
v 1.000000 0.000000 3.000000
v -1.000000 -1.000000 3.000000
v 1.000000 -1.000000 3.000000
vn -0.0000 1.0000 -0.0000
vn -0.0000 0.0669 0.9978
vn -0.0000 -0.0000 1.0000
vn -0.0000 0.2637 0.9646
vn -0.0000 0.5046 0.8633
vn -0.0000 0.7071 0.7071
vn -0.0000 0.8633 0.5046
vn -0.0000 0.9646 0.2637
vn -0.0000 0.9978 0.0669
vn -0.0000 -0.0000 -1.0000
vn 1.0000 -0.0000 -0.0000
vn -0.0000 -1.0000 -0.0000
vn -1.0000 -0.0000 -0.0000
vt 1.000000 1.000000
vt 0.000000 1.000000
vt 0.000000 1.000000
vt 1.000000 1.000000
vt 0.000000 0.000000
vt 1.000000 0.000000
vt 0.000000 1.000000
vt 1.000000 1.000000
vt 1.000000 0.166667
vt 1.000000 0.333333
vt 1.000000 0.500000
vt 1.000000 0.666667
vt 1.000000 0.833333
vt 0.000000 0.833333
vt 0.000000 0.666667
vt 0.000000 0.500000
vt 0.000000 0.333333
vt 0.000000 0.166667
vt 1.000000 1.000000
vt 0.000000 1.000000
vt 0.000000 1.000000
vt 1.000000 1.000000
vt 0.000000 1.000000
vt 1.000000 1.000000
s 1
f 7/7/1 8/8/1 1/1/1 2/2/1
f 5/5/2 6/6/2 8/8/3 7/7/3
f 6/6/2 5/5/2 18/18/4 9/9/4
f 9/9/4 18/18/4 17/17/5 10/10/5
f 10/10/5 17/17/5 16/16/6 11/11/6
f 11/11/6 16/16/6 15/15/7 12/12/7
f 12/12/7 15/15/7 14/14/8 13/13/8
f 13/13/8 14/14/8 3/3/9 4/4/9
f 2/2/10 1/1/10 19/19/10 20/20/10
f 21/21/3 23/23/3 24/24/3 22/22/3
f 1/1/11 8/8/11 6/6/11 9/9/11 10/10/11 11/11/11 12/12/11 13/13/11 4/4/11 22/22/11 24/24/11 19/19/11
f 20/20/12 19/19/12 24/24/12 23/23/12
f 3/3/9 21/21/1 22/22/1 4/4/9
f 7/7/13 2/2/13 20/20/13 23/23/13 21/21/13 3/3/13 14/14/13 15/15/13 16/16/13 17/17/13 18/18/13 5/5/13
